<mxfile host="app.diagrams.net" agent="Mozilla/5.0 (Windows NT 10.0; Win64; x64) AppleWebKit/537.36 (KHTML, like Gecko) Chrome/129.0.0.0 Safari/537.36 Edg/129.0.0.0" version="26.2.14">
  <diagram name="第 1 页" id="YRsOR0OvKWBrRC6t7e9S">
    <mxGraphModel dx="2245" dy="1931" grid="1" gridSize="10" guides="1" tooltips="1" connect="1" arrows="1" fold="1" page="1" pageScale="1" pageWidth="827" pageHeight="1169" math="0" shadow="0">
      <root>
        <mxCell id="0" />
        <mxCell id="1" parent="0" />
        <mxCell id="9NgrcvH7G1OY0dIf0BPA-1" value="多组学整合机制解析" style="whiteSpace=wrap;strokeWidth=2;fontSize=20;" vertex="1" parent="1">
          <mxGeometry y="126" width="204" height="54" as="geometry" />
        </mxCell>
        <mxCell id="9NgrcvH7G1OY0dIf0BPA-2" value="宏基因组-代谢组关联" style="whiteSpace=wrap;strokeWidth=2;fontSize=20;" vertex="1" parent="1">
          <mxGeometry x="304" y="70" width="210" height="54" as="geometry" />
        </mxCell>
        <mxCell id="9NgrcvH7G1OY0dIf0BPA-3" value="单细胞转录组学" style="whiteSpace=wrap;strokeWidth=2;fontSize=20;" vertex="1" parent="1">
          <mxGeometry x="323" y="182" width="172" height="54" as="geometry" />
        </mxCell>
        <mxCell id="9NgrcvH7G1OY0dIf0BPA-4" value="KEGG通路富集" style="whiteSpace=wrap;strokeWidth=2;fontSize=20;" vertex="1" parent="1">
          <mxGeometry x="614" width="163" height="54" as="geometry" />
        </mxCell>
        <mxCell id="9NgrcvH7G1OY0dIf0BPA-5" value="Spearman分析" style="whiteSpace=wrap;strokeWidth=2;fontSize=20;" vertex="1" parent="1">
          <mxGeometry x="614.5" y="84" width="162" height="54" as="geometry" />
        </mxCell>
        <mxCell id="9NgrcvH7G1OY0dIf0BPA-6" value="样本制备" style="whiteSpace=wrap;strokeWidth=2;fontSize=20;" vertex="1" parent="1">
          <mxGeometry x="633.5" y="168" width="124" height="54" as="geometry" />
        </mxCell>
        <mxCell id="9NgrcvH7G1OY0dIf0BPA-7" value="细胞亚群分析" style="whiteSpace=wrap;strokeWidth=2;fontSize=20;" vertex="1" parent="1">
          <mxGeometry x="617.5" y="252" width="156" height="54" as="geometry" />
        </mxCell>
        <mxCell id="9NgrcvH7G1OY0dIf0BPA-8" value="" style="startArrow=none;endArrow=block;exitX=0.01;exitY=1;entryX=0.5;entryY=0;rounded=0;orthogonal=1;fontSize=20;edgeStyle=orthogonalEdgeStyle;" edge="1" parent="1" source="9NgrcvH7G1OY0dIf0BPA-1" target="9NgrcvH7G1OY0dIf0BPA-2">
          <mxGeometry relative="1" as="geometry" />
        </mxCell>
        <mxCell id="9NgrcvH7G1OY0dIf0BPA-9" value="" style="startArrow=none;endArrow=block;exitX=1;exitY=0.98;entryX=0.5;entryY=0;rounded=0;orthogonal=1;fontSize=20;edgeStyle=orthogonalEdgeStyle;" edge="1" parent="1" source="9NgrcvH7G1OY0dIf0BPA-1" target="9NgrcvH7G1OY0dIf0BPA-3">
          <mxGeometry relative="1" as="geometry" />
        </mxCell>
        <mxCell id="9NgrcvH7G1OY0dIf0BPA-10" value="" style="startArrow=none;endArrow=block;exitX=0.24;exitY=1;entryX=0.5;entryY=0;rounded=0;orthogonal=1;fontSize=20;edgeStyle=orthogonalEdgeStyle;" edge="1" parent="1" source="9NgrcvH7G1OY0dIf0BPA-2" target="9NgrcvH7G1OY0dIf0BPA-4">
          <mxGeometry relative="1" as="geometry" />
        </mxCell>
        <mxCell id="9NgrcvH7G1OY0dIf0BPA-11" value="" style="startArrow=none;endArrow=block;exitX=0.76;exitY=1;entryX=0.5;entryY=0;rounded=0;orthogonal=1;fontSize=20;edgeStyle=orthogonalEdgeStyle;" edge="1" parent="1" source="9NgrcvH7G1OY0dIf0BPA-2" target="9NgrcvH7G1OY0dIf0BPA-5">
          <mxGeometry relative="1" as="geometry" />
        </mxCell>
        <mxCell id="9NgrcvH7G1OY0dIf0BPA-12" value="" style="startArrow=none;endArrow=block;exitX=0.21;exitY=1;entryX=0.5;entryY=0;rounded=0;orthogonal=1;fontSize=20;edgeStyle=orthogonalEdgeStyle;" edge="1" parent="1" source="9NgrcvH7G1OY0dIf0BPA-3" target="9NgrcvH7G1OY0dIf0BPA-6">
          <mxGeometry relative="1" as="geometry" />
        </mxCell>
        <mxCell id="9NgrcvH7G1OY0dIf0BPA-13" value="" style="startArrow=none;endArrow=block;exitX=0.79;exitY=1;entryX=0.5;entryY=0;rounded=0;orthogonal=1;fontSize=20;edgeStyle=orthogonalEdgeStyle;" edge="1" parent="1" source="9NgrcvH7G1OY0dIf0BPA-3" target="9NgrcvH7G1OY0dIf0BPA-7">
          <mxGeometry relative="1" as="geometry" />
        </mxCell>
      </root>
    </mxGraphModel>
  </diagram>
</mxfile>
